<svg width="54" height="54" viewBox="0 0 54 54" fill="none" xmlns="http://www.w3.org/2000/svg">
<path d="M13.25 39.9169V13.9792M41.5833 39.9169V13.9792M26.1667 52H27.8333C41.1802 52 52 41.1802 52 27.8333V26.1667C52 12.8198 41.1802 2 27.8333 2H26.1667C12.8198 2 2 12.8198 2 26.1667V27.8333C2 41.1802 12.8198 52 26.1667 52ZM33.6667 25.7426V14.1875C33.6667 13.8999 33.4335 13.6667 33.1458 13.6667H21.5907C21.1267 13.6667 20.8943 14.2277 21.2224 14.5558L32.7775 26.1109C33.1057 26.439 33.6667 26.2066 33.6667 25.7426ZM20.3333 28.2574V39.8125C20.3333 40.1001 20.5665 40.3333 20.8542 40.3333H32.4093C32.8733 40.3333 33.1057 39.7723 32.7775 39.4442L21.2225 27.8891C20.8943 27.561 20.3333 27.7934 20.3333 28.2574Z" stroke="white" stroke-width="3" stroke-linecap="round"/>
</svg>
